<?xml version="1.0" standalone="no"?>
<!DOCTYPE svg PUBLIC "-//W3C//DTD SVG 20010904//EN"
 "http://www.w3.org/TR/2001/REC-SVG-20010904/DTD/svg10.dtd">
<svg version="1.0" xmlns="http://www.w3.org/2000/svg"
 width="260.000000pt" height="260.000000pt" viewBox="0 0 260.000000 260.000000"
 preserveAspectRatio="xMidYMid meet">
<metadata>
Created by potrace 1.11, written by Peter Selinger 2001-2013
</metadata>
<g transform="translate(0.000000,260.000000) scale(0.100000,-0.100000)"
fill="#000000" stroke="none">
<path d="M0 1300 l0 -1300 729 0 730 0 28 27 c27 25 24 26 -24 6 -12 -5 -14
-3 -8 7 6 10 1 11 -21 6 l-29 -6 37 35 c23 21 32 35 23 35 -8 0 -15 -5 -15
-12 0 -6 -2 -9 -5 -6 -12 11 7 37 22 31 12 -5 14 -3 8 6 -4 8 -2 17 6 22 11 7
10 9 -4 9 -10 0 -15 5 -12 10 4 6 11 7 17 4 7 -4 8 -2 4 4 -7 11 -36 6 -36 -7
0 -12 -60 -42 -70 -36 -6 3 -10 1 -10 -5 0 -7 -6 -10 -13 -7 -7 3 -24 -1 -37
-8 -28 -15 -56 -9 -65 13 -6 15 -8 15 -15 -3 -8 -18 -9 -18 -10 5 -1 23 -2 23
-10 5 -8 -19 -9 -19 -9 3 -1 12 -5 22 -11 22 -5 0 -7 -6 -4 -13 4 -10 -3 -12
-26 -9 -16 2 -30 9 -30 16 0 6 -4 6 -9 -3 -12 -18 -53 3 -45 24 5 11 2 13 -10
9 -9 -4 -16 -3 -15 2 1 5 0 12 -1 17 -1 4 -4 12 -5 17 -1 6 -3 11 -5 13 -6 7
-6 75 1 71 5 -2 5 -12 2 -21 -5 -11 -3 -14 6 -9 7 5 10 18 7 31 -3 13 -1 36 4
51 8 21 8 29 -2 36 -10 6 -9 8 4 8 21 0 30 14 22 34 -8 20 -24 21 -24 2 0 -8
-4 -17 -9 -20 -4 -3 -6 6 -3 19 2 14 9 25 14 25 7 0 7 4 1 13 -6 6 -13 21 -16
32 l-7 20 18 -20 c22 -24 43 -30 36 -10 -4 8 -1 15 6 15 6 0 8 5 5 10 -5 8
-11 8 -19 1 -9 -8 -12 -2 -10 24 2 19 -1 35 -7 35 -6 0 -6 8 1 21 7 12 18 18
26 15 21 -8 17 3 -8 25 -13 10 -17 18 -10 19 8 0 11 9 8 24 l-4 23 170 8 c94
3 191 13 217 20 94 28 151 24 151 -10 0 -25 17 -17 24 12 16 60 -47 74 -135
30 -58 -28 -77 -32 -189 -38 -140 -8 -207 0 -227 27 -9 12 -10 20 -3 22 5 2
10 12 10 23 0 17 10 24 32 20 4 0 5 6 2 14 -4 9 0 15 10 15 9 0 16 5 16 10 0
6 7 10 15 10 8 0 16 -4 16 -10 1 -5 3 -14 4 -20 1 -5 3 -14 4 -20 0 -5 10 -10
21 -10 10 0 24 -8 29 -18 7 -13 9 -5 7 32 -2 27 -10 52 -17 57 -11 7 -11 9 -1
10 14 2 31 6 35 8 1 1 19 4 41 6 44 5 72 23 57 38 -17 17 -68 10 -113 -15 -30
-17 -42 -20 -45 -10 -3 6 -8 10 -13 7 -14 -9 -76 61 -87 99 -6 20 -7 34 -3 31
4 -3 6 4 3 15 -3 10 0 41 6 67 16 72 24 132 25 193 2 66 9 80 43 80 40 0 60
-25 88 -111 29 -87 81 -153 128 -163 27 -6 38 7 15 18 -7 4 5 4 27 1 22 -3 69
-6 105 -6 61 -2 62 -2 20 -8 -25 -3 -61 -3 -82 0 -27 5 -35 3 -31 -7 3 -7 17
-13 31 -13 60 0 149 2 177 4 64 5 62 4 45 15 -12 8 -10 10 8 10 16 0 21 -4 16
-13 -5 -7 0 -6 11 3 10 8 36 22 59 30 50 19 77 58 106 151 22 74 39 85 52 33
7 -27 7 -26 4 6 -2 20 3 40 12 49 10 10 13 28 9 60 -4 28 -3 38 2 26 8 -19 9
-18 12 5 3 19 -44 140 -55 140 -1 0 0 -32 2 -71 4 -66 3 -71 -14 -66 -11 3
-64 13 -119 23 -55 10 -102 19 -105 22 -3 2 4 10 14 18 18 13 18 14 2 14 -9 0
-15 4 -12 8 2 4 -10 9 -27 10 -18 2 -52 9 -77 16 -61 17 -148 20 -166 6 -11
-10 -14 -10 -14 0 0 10 -5 9 -18 -2 -9 -9 -25 -14 -34 -13 -10 2 -21 -2 -25
-7 -4 -7 -1 -8 7 -3 9 5 11 4 6 -4 -5 -7 -13 -8 -24 -2 -10 5 -26 5 -41 0 -13
-6 -31 -7 -38 -5 -9 4 -16 -5 -20 -25 -5 -27 -7 -28 -23 -14 -9 8 -19 12 -23
9 -3 -4 -14 -3 -24 1 -10 5 -20 9 -23 9 -3 1 -11 5 -19 10 -10 7 -12 6 -6 -3
6 -10 2 -10 -16 0 -13 7 -27 12 -31 11 -5 -1 -8 5 -8 13 0 8 -6 12 -14 9 -8
-3 -18 7 -26 26 -13 31 -50 61 -50 40 0 -21 -20 -9 -21 13 -1 21 -1 21 -9 -3
-4 -14 -8 -19 -9 -12 -1 6 -8 12 -16 12 -9 0 -27 7 -40 16 -25 17 -61 12 -50
-6 4 -6 -1 -7 -11 -3 -12 4 -14 8 -5 11 9 3 9 9 -2 26 -15 23 -14 23 46 17 5
-1 6 -5 3 -10 -3 -5 3 -11 15 -14 14 -4 18 -2 11 6 -5 7 -8 26 -6 42 1 17 -4
35 -13 42 -9 7 -10 13 -4 17 6 4 8 20 4 36 -4 22 -2 30 8 31 8 0 5 4 -6 8 -19
8 -19 9 5 19 14 5 36 15 50 21 l25 10 -28 -4 c-33 -5 -32 14 1 31 23 12 15 38
-10 29 -9 -4 -18 0 -21 8 -7 20 34 77 56 77 9 0 17 4 17 10 0 5 7 6 17 3 11
-4 14 -3 9 5 -4 7 -1 12 6 12 8 0 32 9 53 21 22 11 49 22 59 24 11 3 24 10 30
16 8 9 8 10 -1 5 -7 -4 -13 -2 -13 3 0 6 5 12 10 12 6 1 14 2 19 3 5 0 13 4
17 9 4 4 17 7 28 8 12 0 16 3 9 5 -28 12 26 77 54 67 16 -5 16 -4 -1 9 -18 14
-18 15 5 23 13 4 27 8 32 10 4 1 14 3 22 4 9 1 12 8 9 19 -5 14 -3 14 10 -2
14 -17 16 -18 16 -3 0 13 5 15 24 7 17 -6 26 -5 30 3 3 9 7 8 14 -2 6 -8 29
-15 51 -16 22 -1 49 -9 58 -17 10 -8 23 -13 30 -11 6 2 14 -1 18 -6 3 -6 16
-11 28 -11 12 0 37 -9 56 -21 18 -11 36 -18 38 -15 3 3 12 -1 19 -9 8 -8 21
-12 29 -9 8 4 15 1 15 -6 0 -6 5 -8 10 -5 18 11 104 -90 96 -112 -3 -7 -2 -13
3 -13 4 0 14 -19 21 -42 8 -24 17 -48 22 -54 4 -6 4 -14 0 -18 -4 -4 -2 -6 5
-4 6 2 19 -6 28 -17 15 -18 15 -17 0 9 -17 28 -17 29 3 24 18 -5 19 -3 11 25
-12 43 -3 46 14 4 8 -19 19 -37 24 -40 15 -10 -2 88 -20 116 -9 15 -17 31 -17
37 0 6 -7 19 -16 27 -9 10 -13 25 -10 38 4 15 1 25 -9 28 -16 7 -55 78 -55
103 0 9 -20 36 -44 60 -24 23 -41 46 -37 49 3 4 -8 4 -24 1 -18 -4 -23 -3 -12
2 15 6 11 14 -34 60 -28 29 -54 50 -59 47 -4 -2 -15 4 -25 15 -16 18 -31 20
-132 20 -88 0 -113 -3 -107 -12 6 -10 4 -10 -7 0 -10 9 -166 12 -711 12 l-698
0 0 -1300z m1615 1140 c3 -5 2 -10 -4 -10 -5 0 -13 5 -16 10 -3 6 -2 10 4 10
5 0 13 -4 16 -10z m80 0 c3 -5 1 -10 -4 -10 -6 0 -11 5 -11 10 0 6 2 10 4 10
3 0 8 -4 11 -10z m-151 -16 c3 -8 2 -12 -4 -9 -6 3 -10 10 -10 16 0 14 7 11
14 -7z m137 -71 c13 -16 12 -17 -3 -4 -10 7 -18 15 -18 17 0 8 8 3 21 -13z
m315 -271 c-4 -3 -14 2 -24 12 -16 18 -16 18 6 6 13 -6 21 -14 18 -18z m-524
-624 c-5 -88 -4 -88 -64 -89 -29 -1 -44 -4 -32 -6 11 -2 35 -17 53 -34 18 -16
37 -26 43 -23 6 4 6 10 -1 17 -17 17 -13 26 9 20 11 -3 17 -10 13 -17 -4 -6 0
-5 9 2 12 10 18 10 23 1 6 -8 9 -8 15 1 5 8 13 4 28 -14 11 -14 26 -26 33 -26
9 1 8 4 -3 11 -27 15 -22 32 8 26 20 -3 24 -1 19 12 -5 13 -4 13 6 4 9 -9 16
-10 26 -1 17 14 43 -16 36 -42 -8 -29 34 -32 65 -5 34 29 38 61 9 89 -34 32
-93 59 -117 53 -19 -5 -79 20 -103 42 -4 5 3 15 17 25 20 13 40 15 93 10 98
-8 174 -24 201 -41 21 -13 22 -16 8 -26 -9 -7 -17 -23 -18 -37 -3 -21 1 -24
21 -22 22 3 23 2 16 -40 -9 -61 -25 -110 -42 -129 -25 -30 -102 -43 -238 -43
-94 0 -147 5 -192 18 -62 18 -63 19 -84 75 -27 73 -36 179 -17 205 15 18 92
44 139 45 25 1 25 0 21 -61z m-951 -38 c5 0 9 -13 9 -28 0 -16 7 -51 15 -77
15 -51 8 -88 -12 -63 -20 24 -33 92 -31 163 1 39 3 55 5 38 2 -18 8 -33 14
-33z m411 -15 c4 -31 1 -35 -19 -35 -20 0 -23 5 -23 35 0 28 4 35 19 35 14 0
20 -9 23 -35z m598 -15 c0 -36 -2 -40 -25 -40 -22 0 -25 4 -25 33 0 38 6 47
32 47 14 0 18 -8 18 -40z m106 4 c-3 -9 -6 -20 -6 -26 0 -5 -7 -2 -16 6 -17
18 -11 36 13 36 10 0 13 -6 9 -16z m65 -37 c-1 -12 -15 -9 -19 4 -3 6 1 10 8
8 6 -3 11 -8 11 -12z m-793 -244 c-1 -10 1 -23 5 -29 4 -7 0 -15 -9 -18 -10
-4 -13 -2 -8 6 4 7 3 8 -4 4 -7 -4 -12 -14 -12 -22 0 -8 -5 -14 -11 -14 -5 0
-8 -4 -5 -9 3 -5 -1 -12 -10 -15 -8 -3 -13 -10 -9 -16 8 -13 -27 -46 -66 -60
-39 -13 -94 1 -86 23 2 6 9 11 14 10 5 -1 10 5 10 13 0 8 -4 14 -9 14 -4 0 -8
-5 -8 -12 0 -22 -14 3 -16 27 0 15 5 25 13 25 9 0 11 5 6 13 -14 23 -13 47 3
47 8 0 13 4 9 9 -6 11 33 17 128 19 60 2 68 0 65 -15z m442 -1003 c0 -5 -5
-10 -11 -10 -5 0 -7 5 -4 10 3 6 8 10 11 10 2 0 4 -4 4 -10z m80 -30 c0 -5 -4
-10 -10 -10 -5 0 -10 5 -10 10 0 6 5 10 10 10 6 0 10 -4 10 -10z m-23 -56 c-3
-3 -12 -4 -19 -1 -8 3 -5 6 6 6 11 1 17 -2 13 -5z"/>
<path d="M1815 1401 c-3 -5 -1 -12 5 -16 5 -3 10 1 10 9 0 18 -6 21 -15 7z"/>
<path d="M1600 1250 c0 -5 5 -10 10 -10 6 0 10 5 10 10 0 6 -4 10 -10 10 -5 0
-10 -4 -10 -10z"/>
<path d="M511 1384 c0 -16 4 -38 9 -49 6 -13 7 -5 3 25 -7 53 -13 66 -12 24z"/>
<path d="M531 1300 c0 -8 4 -22 9 -30 12 -18 12 -2 0 25 -6 13 -9 15 -9 5z"/>
<path d="M2041 1864 c0 -11 3 -14 6 -6 3 7 2 16 -1 19 -3 4 -6 -2 -5 -13z"/>
<path d="M1967 1770 c4 -27 2 -40 -6 -40 -8 0 -7 -7 3 -22 9 -12 16 -29 16
-38 -1 -12 -3 -12 -11 3 -5 9 -15 17 -20 17 -6 0 -1 -13 10 -29 12 -16 21 -34
21 -40 0 -6 5 -11 11 -11 5 0 8 -4 5 -8 -2 -4 -1 -14 3 -21 4 -7 9 12 10 44 1
41 -3 60 -15 72 -10 10 -12 19 -6 21 7 2 5 18 -5 48 -8 24 -16 44 -18 44 -2 0
-1 -18 2 -40z"/>
<path d="M1946 1777 c3 -10 9 -15 12 -12 3 3 0 11 -7 18 -10 9 -11 8 -5 -6z"/>
<path d="M910 1773 c0 -5 5 -15 10 -23 8 -12 10 -11 10 8 0 12 -4 22 -10 22
-5 0 -10 -3 -10 -7z"/>
<path d="M1277 1599 c7 -7 15 -10 18 -7 3 3 -2 9 -12 12 -14 6 -15 5 -6 -5z"/>
<path d="M2006 1365 c-6 -17 2 -45 14 -45 10 0 21 41 14 52 -8 13 -21 9 -28
-7z"/>
<path d="M1416 1060 c8 -31 24 -50 24 -29 0 8 -7 24 -16 35 -14 18 -15 18 -8
-6z"/>
<path d="M1536 940 c22 -17 68 -62 105 -100 36 -39 68 -70 72 -70 4 0 7 15 7
33 0 23 -8 40 -28 57 -16 14 -31 25 -34 25 -4 0 -17 9 -30 20 -27 23 -105 65
-120 65 -6 0 7 -14 28 -30z"/>
<path d="M1184 809 c-3 -6 -2 -15 4 -21 6 -6 12 -6 16 1 4 6 2 11 -4 11 -6 0
-8 5 -5 10 3 6 4 10 1 10 -3 0 -8 -5 -12 -11z"/>
<path d="M1165 551 c-3 -5 -2 -12 3 -15 5 -3 9 1 9 9 0 17 -3 19 -12 6z"/>
<path d="M1152 513 c-6 -2 -10 -9 -7 -13 7 -11 35 -2 35 11 0 10 -8 10 -28 2z"/>
<path d="M1890 437 c0 -2 11 -18 25 -37 14 -19 25 -43 25 -55 0 -56 -124 -245
-161 -245 -5 0 -22 -14 -37 -31 -14 -18 -40 -40 -57 -50 -29 -19 -23 -19 419
-19 247 0 447 2 445 5 -3 2 -48 25 -100 51 -67 33 -108 61 -144 98 -39 41 -67
59 -124 81 -44 16 -84 39 -100 57 -14 17 -39 37 -55 45 -16 8 -48 35 -71 59
-36 36 -65 55 -65 41z"/>
<path d="M1090 379 c-7 -11 -9 -23 -6 -27 3 -3 6 0 6 7 0 7 5 9 12 5 7 -5 8
-3 3 6 -4 7 -2 16 6 21 10 6 10 9 2 9 -7 0 -17 -9 -23 -21z"/>
<path d="M1773 211 c0 -11 5 -18 9 -15 4 3 5 11 1 19 -7 21 -12 19 -10 -4z"/>
<path d="M1520 209 c0 -5 5 -7 10 -4 6 3 10 8 10 11 0 2 -4 4 -10 4 -5 0 -10
-5 -10 -11z"/>
<path d="M1680 160 c-8 -5 -12 -12 -9 -15 4 -3 12 1 19 10 14 17 11 19 -10 5z"/>
<path d="M1328 143 c7 -3 16 -2 19 1 4 3 -2 6 -13 5 -11 0 -14 -3 -6 -6z"/>
<path d="M1581 127 c-13 -21 -12 -21 5 -5 10 10 16 20 13 22 -3 3 -11 -5 -18
-17z"/>
<path d="M1685 110 c-3 -6 1 -7 9 -4 18 7 21 14 7 14 -6 0 -13 -4 -16 -10z"/>
<path d="M1527 73 c-4 -3 -7 -11 -7 -17 0 -6 5 -5 12 2 6 6 9 14 7 17 -3 3 -9
2 -12 -2z"/>
<path d="M1610 60 c-6 -11 -8 -20 -6 -20 3 0 10 9 16 20 6 11 8 20 6 20 -3 0
-10 -9 -16 -20z"/>
<path d="M1655 50 c-3 -5 -1 -10 4 -10 6 0 11 5 11 10 0 6 -2 10 -4 10 -3 0
-8 -4 -11 -10z"/>
<path d="M1546 34 c-17 -12 -17 -14 -4 -14 9 0 20 5 23 11 11 17 2 18 -19 3z"/>
</g>
</svg>
